<?xml version="1.0" encoding="UTF-8"?>
<svg id="Laag_1" data-name="Laag 1" xmlns="http://www.w3.org/2000/svg" viewBox="0 0 2037.14 1795.38">
  <defs>
    <style>
      .cls-1 {
        fill: #0ba524;
      }

      .cls-2 {
        fill: #fefefe;
      }
    </style>
  </defs>
  <g>
    <path class="cls-2" d="M1644.88,89.59c3.2-1.3,7.42-8.38,8.78-11.72,3.03-7.44,4.52-19.51-5.54-22.1-6.93-1.78-4.78,9.09-5.51,13.06-1.09,5.95-3,12.49-7.24,16.77-1.38-.06,1.45-26.89-7.84-23.91-5.57,1.79-3.37,19.29-1.67,23.9-3.14-3.59-12.84-13.27-13.92-3.42-1.23,11.34,7.55,7.62,10.49,12.44.53.88-.39,3.79-.61,3.95-.56.42-9.45-2.26-10.29-2.89-1.13-.86-2.08-5.44-5.74-7.5-2.95-1.65-8.48-3-9.71,1.12-2.11,7.05,1.92,8.35,6.46,12.14l11.33,5.15c-6.61,5.59-14.54-2.1-19.27-.84-5.44,1.45-2.31,8.12,3.21,9.42,10.21,2.41,17.79-1.78,27.06-4.56,1.31,1.19-6.65,7.25-7.72,7.77-3.86,1.87-12.61-.44-9.81,6.18,5.02,11.84,24.88-8.02,28.03-13.94,1.83,1.84,3.8,3.52,5.34,5.64,3.12,4.33,18.29,33.23,18.2,36.78-.07,2.91-1.35,5.35-1.06,9.05.5,6.21,4.89,14.86,12.38,12.36,2.46-.82,1.97-12.68,1.57-15.3-.58-3.78-7.25-20.42-9.16-24.84-4.57-10.55-13.07-19.13-18.71-29.09.49-2.96,27.33-16.97,29.7-28.36.59-2.82.96-8.15-2.47-9.12-6.08-1.73-4.41,6.58-5.83,9.82-.86,1.95-5.2,4.37-7.02,5.98-4.39,3.87-3.38,5.73-11.04,6.98-1.02.17-2.69.66-2.41-.92ZM604.53,237.92c-7.82-7.95-23.84-17.69-33.15-25.34-9.94-8.17,4.4-13.82,5.49-22.59-1.53-5.75,1.99-23.34-.89-27-4.95-6.28-10.56,5.32-13.2,7.99-1.36,1.37-6.64,6.24-7.94,7.06-2.57,1.62-13.67,2.54-17.43,2.62s-9.1-.74-10.32-4.78c-1.31-4.34,3.31-10.3-2.24-12.8s-8.75,5.66-13.93,7.04c-12.42,3.3-39.2,8.83-51.49,9.51-69.16,3.83-133.44-13.34-193.46,31.54-30.92,23.12-58.6,44.41-81.94,76.06-3.75,5.08-4.74,13.87-12.93,14.18-4.74.17-4.83-6.65-8.71-8.79-10.39,8.94,3.78,19.29-11.82,27.15-14.35,7.23-14.9,7.42-27.21,17.79-1.74,1.47-7.39,4.2-7.52,4.62-.47,1.48-.59,3.55,1.56,3.44,3.89-.2,8.03-3.04,12.26-3.76s8.54.24,12.76-1.3c7.31,4.24.42,8.62-1.9,13.15-24.49,47.71-35.8,90.81-18.07,143.85,6.1,18.23,11.74,21.05,21.87,35.13,21.44,29.79,42.69,66.28,67.56,92.44,12.71,13.36,26.09,26.06,39.09,38.91l39.5,24.57c11.15,1.72-4.09-15.72,4.38-18.55,6.91-2.3,12.36,2.67,18.05,5.05,11.75,4.93,39.84,17.66,51.81,18.28,5.21.27,11.82-1.08,17.73-.82,8.96.38,19.31,2.91,27.91,3.09,8.24.17,17.76-1.8,26.01-2.09,4.3-.15,18.29-.68,21.11.98,4.91,2.9,4.56,19.34,2.68,23.81-1.37,3.25-14.23,12.32-17.75,16.25-12.19,13.62-33.33,54.87-36.24,72.76-4.91,30.3-3.18,62.69-2.73,93.23,7.5,5.08,7.11,14.12,7.52,22.48,2.19,43.83,1.84,105.09-5.3,147.79-2.41,14.45-9.32,29.98-12.45,44.55-9.52,44.21-17.64,77.64-33.82,120.18-1.33,3.5-10.5,22.33-9.35,23.91,5.1,2.27,8.58,5.48,14.08,7.42,6.12,2.16,16.06,4.3,22.55,5.45,10.09,1.78,21.62-2.25,23.27,11.72.57,4.85-1,8.76-1.06,12.99-.38,23.77,1.82,45.04,12.5,66.59,8.61,17.38,26.38,26.77,16.74,49.65-6.23,14.78-16.71,30.47-23.56,45.44-2.67,5.82-5.11,11.46-7.84,17.15-4.66,9.71,2.05,8.87,7.18,13.25,7.87,6.71,16.76,14.02,24.08,20.92,2.33,2.2,9.61,9.13,10.46,11.6.65,1.9-3.06,9.96-3.83,13.12-4.21,17.33,5.27,27.09,6.36,44.28,3.71,58.14-31.69,62.05-44.55,108.53-2.6,9.4-7.66,29.82,6.07,31.94,11.29,1.75,28.75-.34,40.98.02,5.22.16,11.74,1.91,16.96,2.13,19.89.86,40.77-1.05,60.99.92,8.96.87,17,6,26.14,6.86s19.54.11,28.86.39c2.98.09,5.81,1.82,9.02,1.82s15.16-.7,17.78-1.28c6.23-1.39,10.38-10.23,4.69-14.28-8.98-3.65-20.79-5.18-29.32-9.67-8.91-4.69-19.9-12.86-27.33-19.67-13.62-8.49-27.97-16.02-39.2-27.8-.88-1.15-1.07-2.31-1.06-3.73.21-28.84,14.44-63.6,28.76-88.3,1.56-2.69,9.52-16.06,11.19-16.81,14.69-2.51,33.18,1.62,47.42-.58,4.71-.73,8.19-4.62,10.57-8.43,9.4-14.98,24.98-45.97,30.48-62.52,16.85-50.62,32.01-102.51,46-154,2.3-8.48,6.54-33.64,10.07-38.93,7.59-11.37,24.73-13.93,36.12-18.88,16.45-7.14,35.04-19.48,52.27-23.73,2.43-.6,15.74-2.07,16.06-2.98-.1-1.07.3-2.27-.25-3.28-.34-.61-10.09-5.71-12.02-7.18-21.84-16.64-37.62-38.63-48.25-64.03-15.19-36.32-32.15-82.92-38.37-121.63-2.33-14.49-2.54-29.3-4.14-43.86-1.73-15.77-6.1-34.41-6.08-50.01,0-7.68,10.27-20.12,16.15-24.93,6.49-5.32,14.8-12.87,21.62-17.38,10.05-6.63,22.49-11.85,32.64-18.36,19.26-12.36,35.57-28.97,57-38,19.62-19.17,64.86-39.13,78.7-61.3,3.97-6.37,6.33-12.48,6.96-20.04.68-8.1-2.12-16.58,2.61-23.39,6.3-9.06,27.57-18.84,36.44-26.56,4.68-4.07,11.9-11.77,16.48-16.52s18.01-26.45,19.5-8.5c.82,9.87-2.64,25.37-3,36-.25,7.33-2.72,18.73,6.65,19.2,8.11.41,10.08-10.96,10.24-17.32.18-7.38-1.87-17.42-1.94-24.85-.04-4.94.11-23.75,4.07-26.01,1.83-1.04,5.21-1.16,7.66-2.34,6.27-3.03,13.23-9.84,15.59-16.41,5.18-14.47,1.73-47.42-5.1-61.46-2.17-4.47-8.72-12.82-13.24-14.82-3.38-1.49-14.39,3.26-16.75-1.19-1.82-3.44-2.18-19.71-3.47-25.53-1.48-6.7-4.48-12.5-5.6-19.4-1.49-9.1-1.01-18.2-3.59-27.41-1.17-4.17-3.85-5.26-3.62-10.48.37-8.37,4.42-2.48,7.41-2.71s5.59-4.1,7.41-4.62c3.64-1.04,6.53,1.97,11.19-2.74,1.41-1.42,6.97-10.12,8.48-12.52,1.19-1.89,1.15-4.46,2.56-6.44s4.8-2.94,5.54-4.46c1.31-2.68-.27-7.43.64-8.86.53-.83,4.33-.27,4.89-3.68.99-6-4.87-4.35-7.61-6.41-1.9-1.42-2.98-7.68-6.81-6.92-.89.17-10.53,11.68-11.81,13.68-11.2-.74-5.01-3.19-3.99-6.52,2.23-7.32-7.87-5.72-7.81-7.8,1.23-1.8,4.46-2.44,5.68-3.8,1.51-1.68,1.49-5.08,3.9-6.6,1.33-.84,9.97-2.09,11.95-2.14,8.14-.2,13.01,11.51,22.2,7.29,6.53-3.01-.67-5.05-2.14-6.16-3.55-2.7,3.34-3.97,4.46-5.51,3.79-5.18-2.21-4.77-4.11-7.31-1.17-1.57-4.22-10.56-5.12-11.1-1.1-.66-3.85.31-5.86-.64-1.33-.63-2.14-3.34-3.46-4.53-4.9-4.4-6.15,1.03-9.04,1.03-2.16,0-4.62-4.88-7.83-3.93-.66.19-7.69,10.73-7.69,11.41,0,3.14,10.69,8.22,7.55,14.51-2.96,5.93-30.36,13.87-23.82-2.79.49-1.25,2.26-1.1,2.87-3.11,2.16-7.1-1.91-4.74-6.72-7.45-3.39-1.91-4.87-5.87-7.08-6.92-1.78-.85-12.53-3.94-14.26-3.81-2.31.18-3.6,1.54-5.23,1.84-2.75.51-5.26-.18-8.02.98-2.61,1.1-7.02,9.71-10.85,12.11-4.63,2.9-11.43,2.77-16.26,7.78-2.44,2.53-6.27,12.57-6.93,16.11s1.06,5.87.89,8.76c-.15,2.51-2.32,3.88-2.21,6.99.19,5.45,14.18,2.02,13.11,6.99-.71,3.33-8.41.34-10.26.71-1.96.4-5.93,4.19-6.95,6.09-.57,1.06-3.88,9.45-3.87,10.24.03,2.28,6.94,10.66,9.16,11.9s5.01,1.28,7.47,2.53c2.91,1.47,6.34,6.34,8.15,6.85s4.03-.19,5.68.35c1.41.46,1.83,4.68,6.61,2.86.83,3.06-2.6,3.97-3.02,6.54-1.52,9.19,7.87,9.69,10.52,1.48,5.62,7.86,7.07,3.55,13.07,3.05,1.7-.14,3.19,1.01,5.47.56,2.4-.47,6.28-4.69,8.48-1.64.62.87,3.14,9.59,3.64,11.45,3.28,12.28,3.25,21.79,4.86,34.05s4.59,23.71,5.06,35.86c-7.7,3.48-11.81,3.01-16.25,10.98-8.78,15.74-10.77,13.27-25.18,21.82-22.97,13.64-63.39,35.54-88.17,42.83-4.79,1.41-5.79,3.65-11.99,3.05-10.04-.97-11.1-14.4-20.91-12.98-7.5,1.08-25.88,16.75-35.59,20.43-15.56,5.89-26.09,4.96-41.23,7.77-8.16,1.51-15.78,5.41-24.37,6.63-13.32,1.9-45.69,2.83-58.64.88-13.11-1.97-1.49-15.78-8.74-19.26-3.64-1.75-7.82.46-11.46.54-7.35.15-25.28-.57-27.33-9.75-3.75-16.78,6.72-20.23,19.81-25.77,36.68-15.52,95.34-26.58,117.42-61.58,8.26-13.1-2.95-15.27-6.39-26.49-1.23-4-1.65-11.87-1.1-16.01.49-3.68,5.96-7.96,7.93-12.07,1.06-2.2,3.3-8.69,3.1-10.84-.67-6.92-11.98-6.34-11.92-14.91.06-8.03,9.22-10.63,10.7-16.37.33-1.3,1.16-10.35,1.11-11.8-.29-7.4-9.34-13.26-15.82-15-4.33-1.16-18.76-.99-20.12-3.12-3.63-5.7,4.72-11.38,7.47-16.44,3.11-5.74,5.96-14.2,3.84-20.63-.56-1.69-5.91-9.63-7.21-10.78-10.03-8.9-28.7-.34-38.29-6.45-1.96-1.25-7.49-7.9-9.14-10.12-2.44-3.28-7.33-10.44-7.42-14.39-.02-.85,3.59-13.87-.18-11.04-5.87,10.02-14.69,2.73-15.06-6.97-.39-10.27,2.02-21.78.94-32.88-.9-9.23-15.86-54.48-21.01-62s-14.72-18.7-21.21-25.29ZM1233.88,223.57c-1.29-5.7,5.87-19.43-1.98-21.61-3.91-1.09-5,6.21-5.02,9.12-.02,3.73,3.65,12.28-3,11.5.9-5.39-1.82-12.07-8.36-9.87-3.74,1.25-.4,10.87-1.13,13.86-6.79-2.07-2.97-8.09-5.43-11.57-3.38-4.78-12.09.61-7.53,7.53,1.64,2.5,4.71,2.18,4.45,5.04-5.69,1.41-25.93-6.71-21.85,5.37,1.61,4.76,13.95,1.61,17.35,1.64,3.63.03,7.89,1.91,11.5,2.49-3.68,2.26-6.93,5.39-11.01,7-2.81,1.11-14.41,2.99-14.94,3.55-.43.45.15,3.78-.05,4.96,13.28,3.31,30.29-10.52,42.3-7.79,4.6,1.04,6.45,7.17,10.2,9.8,5.66,3.96,12.41,7.44,17.53,12.47,5.85,5.75,3.52,7.88,12.24,12.56.6.32.72,1.56.99,1.68,2.99,1.28,10.06,1.09,11.3-2.67,3.37-10.2-7.79-11.57-13.49-15.61-6.52-4.62-14.09-12.88-21.13-17.87-3.49-2.48-8.28-3.17-10.92-7.06-.04-1.5,28.04-6.11,21.8-16.34-.54-.88-7.77-3.77-9.11-.93-2.93,6.24,1.12,7.8-9.72,6.76,4.01-2.16,4.03-6.11,5.96-8.53,1.13-1.41,3.44-1.73,4.49-3.51,2.4-4.06,2.53-9.44-3.13-9.76-6.39-.37-3.41,8.13-4.87,11.77-.57,1.41-5.72,7.82-7.45,6.04ZM1455.63,259.83c-6.34-6.43-6.15,6.75-5.76,10.26,1.02,9.24,8.96,18.04,9,27.49-3.25-3.02-7.86-5.37-10.42-9.07s-7.81-19.89-13.87-16.04c-2.08,1.32-3.1,6.94-2.47,9.35,1.23,4.71,24.83,23.15,17.63,27.62-.97.6-5.01-.13-7.13.37-9.33,2.18-17.28,7.98-26.67,10.32-10.64,2.65-24.85.71-32.59,9.41-1.22,1.37-3.41,4.25-2.03,6.1.76,1.02,14.42,2.79,16.59,2.55,4.45-.49,6.94-3.36,10.46-4.63,14.82-5.35,29.93-9.65,44.31-15.69,11.8-4.96,10.11-1.57,17.74,4.69,5.41,4.44,6.89,6.86,11.21,11.08,2.82,2.76,20.81,13.25,15.76,2.97-2.62-5.35-21.34-6.64-19.49-18.02,3.98.32,7.51-1.14,11.52-1.08s6.48,1.74,9.98,2.08c2.25.22,13.44.34,14.57-.45,1.61-1.13,1.56-5.68-.7-6.42-4.5-1.47-15.05,1.2-20.9.89-1.66-.09-12.01-1.6-12.46-2.04-1.54-1.51.34-1.73,1.39-2.1,10.02-3.58,28.47-1.32,26.47-17.75-5.04-4.48-23.43,11.08-26.85,7.85-1.56-5.29,13.3-12.01,9.56-17.04-5.01-6.74-10.03,10.26-15.56,9.04-.97-4.45,6.89-18.85,3.06-21.56-12.99-3.3-5.73,14.64-8.51,18.62-.87,1.24-3.08,1.15-4.46.83-.46-4.86-6-9.28-6.87-13.61-.83-4.1.67-12.84-2.47-16.02ZM1095.87,421.08c-.95,3.44.7,10.54,0,14.5-6.31-1.94-13.36.14-19.29-3.21-2.62-1.48-3.03-4.09-5.19-5.81-6.99-5.54-22.39,1.03-14.47,6.47.69.47,13.73,5.52,15.13,5.87,6.98,1.73,24.39-.09,26.61,9.39,1.05,4.49.26,13.04,1.37,16.63.46,1.5,1.94,2.09,3.33,1.65,3.39-1.08-.7-11.04.52-13.99,2.99,1.3,3.14,6.41,5.42,8.07,2.68,1.97,5.88,1.69,4.37-2.37-1.07-2.9-6.15-4.15-4.79-8.7,3.37,2.92,6.56,3.46,10.99,2.99,1.4-5.5-5.4-3.43-6-4-.97-.91,2.5-8.52,2.02-11.45-.41-2.53-3.99-4.47-4-5.05,0-1.02,3.89-2.53,4.47-3.51,1.97-3.3-.71-5.48-3.54-4.45-2.64.96-2.89,6.51-5.95,7.46-1.76-7.88,6.09-9.77,6.98-15.99-6.09-.72-9.55,4.5-10.01,9.99l-.99-8c-2.13-.85-6.5,1.73-7,3.5Z"/>
    <path class="cls-1" d="M604.53,237.92c6.48,6.59,16.12,17.87,21.21,25.29s20.11,52.77,21.01,62c1.08,11.1-1.33,22.61-.94,32.88.37,9.7,9.19,16.99,15.06,6.97,3.76-2.82.16,10.2.18,11.04.08,3.95,4.97,11.1,7.42,14.39,1.65,2.22,7.18,8.87,9.14,10.12,9.6,6.11,28.27-2.46,38.29,6.45,1.3,1.15,6.65,9.1,7.21,10.78,2.12,6.43-.73,14.88-3.84,20.63-2.74,5.06-11.1,10.75-7.47,16.44,1.36,2.13,15.79,1.96,20.12,3.12,6.48,1.74,15.53,7.6,15.82,15,.06,1.45-.77,10.51-1.11,11.8-1.48,5.74-10.64,8.34-10.7,16.37-.06,8.58,11.25,8,11.92,14.91.21,2.15-2.04,8.64-3.1,10.84-1.98,4.11-7.44,8.38-7.93,12.07-.55,4.13-.13,12.01,1.1,16.01,3.44,11.21,14.66,13.39,6.39,26.49-22.08,34.99-80.75,46.06-117.42,61.58-13.09,5.54-23.55,8.99-19.81,25.77,2.05,9.19,19.98,9.91,27.33,9.75,3.64-.08,7.83-2.29,11.46-.54,7.24,3.48-4.38,17.29,8.74,19.26,12.95,1.95,45.32,1.02,58.64-.88,8.59-1.23,16.21-5.12,24.37-6.63,15.14-2.81,25.67-1.88,41.23-7.77,9.71-3.68,28.09-19.34,35.59-20.43,9.81-1.42,10.87,12.01,20.91,12.98,6.2.6,7.21-1.65,11.99-3.05,24.78-7.28,65.2-29.19,88.17-42.83,14.41-8.55,16.39-6.08,25.18-21.82,4.44-7.96,8.55-7.49,16.25-10.98-.47-12.15-3.49-23.89-5.06-35.86s-1.57-21.76-4.86-34.05c-.5-1.86-3.02-10.58-3.64-11.45-2.19-3.06-6.08,1.17-8.48,1.64s-3.76-.71-5.47-.56c-6,.51-7.45,4.82-13.07-3.05-2.65,8.21-12.04,7.71-10.52-1.48.42-2.57,3.85-3.47,3.02-6.54-4.79,1.82-5.2-2.4-6.61-2.86-1.65-.54-3.84.17-5.68-.35s-5.24-5.38-8.15-6.85c-2.47-1.25-5.17-1.24-7.47-2.53s-9.13-9.63-9.16-11.9c0-.78,3.3-9.18,3.87-10.24,1.02-1.9,4.99-5.69,6.95-6.09,1.85-.37,9.55,2.62,10.26-.71,1.06-4.96-12.92-1.53-13.11-6.99-.11-3.11,2.06-4.48,2.21-6.99.17-2.89-1.57-5.09-.89-8.76s4.49-13.58,6.93-16.11c4.83-5.02,11.63-4.88,16.26-7.78,3.83-2.4,8.24-11.01,10.85-12.11,2.76-1.16,5.27-.47,8.02-.98,1.63-.3,2.92-1.66,5.23-1.84,1.73-.13,12.47,2.96,14.26,3.81,2.21,1.05,3.69,5.01,7.08,6.92,4.81,2.71,8.88.35,6.72,7.45-.61,2.01-2.38,1.86-2.87,3.11-6.54,16.66,20.86,8.72,23.82,2.79,3.14-6.29-7.55-11.37-7.55-14.51,0-.69,7.03-11.22,7.69-11.41,3.21-.94,5.67,3.94,7.83,3.93,2.88,0,4.13-5.43,9.04-1.03,1.32,1.19,2.14,3.9,3.46,4.53,2.01.95,4.77-.01,5.86.64.91.54,3.95,9.53,5.12,11.1,1.9,2.55,7.89,2.14,4.11,7.31-1.13,1.54-8.01,2.81-4.46,5.51,1.47,1.12,8.67,3.16,2.14,6.16-9.19,4.23-14.06-7.49-22.2-7.29-1.98.05-10.62,1.3-11.95,2.14-2.41,1.53-2.4,4.92-3.9,6.6-1.22,1.35-4.44,1.99-5.68,3.8-.06,2.07,10.03.48,7.81,7.8-1.01,3.33-7.21,5.78,3.99,6.52,1.28-2,10.93-13.5,11.81-13.68,3.83-.76,4.91,5.5,6.81,6.92,2.74,2.06,8.6.41,7.61,6.41-.56,3.41-4.37,2.85-4.89,3.68-.91,1.43.67,6.18-.64,8.86-.74,1.52-4.19,2.57-5.54,4.46s-1.37,4.55-2.56,6.44c-1.51,2.4-7.07,11.1-8.48,12.52-4.66,4.7-7.55,1.7-11.19,2.74-1.82.52-4.52,4.4-7.41,4.62s-7.04-5.66-7.41,2.71c-.23,5.22,2.45,6.3,3.62,10.48,2.58,9.21,2.1,18.31,3.59,27.41,1.13,6.89,4.12,12.69,5.6,19.4,1.29,5.82,1.65,22.09,3.47,25.53,2.36,4.45,13.37-.3,16.75,1.19,4.52,2,11.07,10.35,13.24,14.82,6.83,14.05,10.28,46.99,5.1,61.46-2.35,6.57-9.32,13.38-15.59,16.41-2.45,1.19-5.82,1.3-7.66,2.34-3.96,2.25-4.12,21.07-4.07,26.01.07,7.43,2.12,17.46,1.94,24.85-.16,6.36-2.13,17.73-10.24,17.32-9.37-.47-6.9-11.87-6.65-19.2.36-10.63,3.82-26.13,3-36-1.49-17.94-15.12,3.96-19.5,8.5s-11.79,12.45-16.48,16.52c-8.87,7.72-30.14,17.5-36.44,26.56-4.73,6.81-1.93,15.29-2.61,23.39-.63,7.56-2.99,13.68-6.96,20.04-13.84,22.17-59.08,42.13-78.7,61.3-21.43,9.03-37.74,25.64-57,38-10.15,6.51-22.59,11.74-32.64,18.36-6.83,4.5-15.13,12.06-21.62,17.38-5.88,4.82-16.14,17.25-16.15,24.93-.02,15.6,4.36,34.25,6.08,50.01,1.6,14.56,1.81,29.37,4.14,43.86,6.23,38.7,23.18,85.31,38.37,121.63,10.63,25.4,26.4,47.39,48.25,64.03,1.93,1.47,11.69,6.57,12.02,7.18.55,1,.15,2.21.25,3.28-.32.91-13.63,2.38-16.06,2.98-17.24,4.25-35.83,16.59-52.27,23.73-11.39,4.95-28.53,7.5-36.12,18.88-3.53,5.28-7.77,30.45-10.07,38.93-13.99,51.49-29.15,103.38-46,154-5.51,16.55-21.09,47.54-30.48,62.52-2.38,3.8-5.86,7.7-10.57,8.43-14.24,2.2-32.73-1.93-47.42.58-1.67.75-9.63,14.12-11.19,16.81-14.31,24.7-28.54,59.46-28.76,88.3-.01,1.42.18,2.58,1.06,3.73,11.23,11.78,25.57,19.31,39.2,27.8,7.43,6.81,18.41,14.98,27.33,19.67,8.54,4.49,20.34,6.02,29.32,9.67,5.69,4.05,1.54,12.89-4.69,14.28-2.62.58-14.53,1.28-17.78,1.28s-6.04-1.73-9.02-1.82c-9.31-.28-19.79.47-28.86-.39s-17.18-5.99-26.14-6.86c-20.23-1.97-41.1-.06-60.99-.92-5.21-.23-11.74-1.97-16.96-2.13-12.23-.37-29.68,1.73-40.98-.02-13.73-2.13-8.68-22.54-6.07-31.94,12.86-46.49,48.26-50.39,44.55-108.53-1.1-17.19-10.57-26.95-6.36-44.28.77-3.16,4.48-11.22,3.83-13.12-.85-2.47-8.13-9.4-10.46-11.6-7.32-6.91-16.21-14.21-24.08-20.92-5.13-4.38-11.84-3.54-7.18-13.25,2.73-5.69,5.18-11.33,7.84-17.15,6.85-14.96,17.34-30.66,23.56-45.44,9.64-22.88-8.13-32.27-16.74-49.65-10.68-21.55-12.88-42.82-12.5-66.59.07-4.23,1.64-8.14,1.06-12.99-1.65-13.96-13.18-9.94-23.27-11.72-6.5-1.15-16.44-3.29-22.55-5.45-5.49-1.94-8.98-5.15-14.08-7.42-1.15-1.58,8.02-20.41,9.35-23.91,16.18-42.54,24.31-75.97,33.82-120.18,3.14-14.57,10.04-30.1,12.45-44.55,7.14-42.7,7.49-103.96,5.3-147.79-.42-8.35-.03-17.39-7.52-22.48-.45-30.54-2.18-62.93,2.73-93.23,2.9-17.89,24.04-59.14,36.24-72.76,3.52-3.93,16.38-13,17.75-16.25,1.89-4.47,2.24-20.91-2.68-23.81-2.81-1.66-16.81-1.13-21.11-.98-8.24.29-17.76,2.26-26.01,2.09-8.6-.18-18.96-2.71-27.91-3.09-5.92-.25-12.52,1.09-17.73.82-11.97-.61-40.06-13.35-51.81-18.28-5.68-2.38-11.14-7.35-18.05-5.05-8.47,2.82,6.77,20.26-4.38,18.55l-39.5-24.57c-13.01-12.85-26.39-25.54-39.09-38.91-24.87-26.16-46.13-62.65-67.56-92.44-10.13-14.08-15.78-16.9-21.87-35.13-17.73-53.03-6.42-96.14,18.07-143.85,2.33-4.53,9.21-8.91,1.9-13.15-4.22,1.54-8.58.59-12.76,1.3s-8.37,3.56-12.26,3.76c-2.15.11-2.03-1.95-1.56-3.44.13-.42,5.78-3.15,7.52-4.62,12.31-10.37,12.86-10.56,27.21-17.79,15.6-7.86,1.43-18.21,11.82-27.15,3.88,2.14,3.97,8.96,8.71,8.79,8.19-.3,9.18-9.09,12.93-14.18,23.35-31.64,51.02-52.93,81.94-76.06,60.02-44.88,124.3-27.72,193.46-31.54,12.3-.68,39.07-6.2,51.49-9.51,5.18-1.38,8.53-9.47,13.93-7.04s.93,8.46,2.24,12.8c1.22,4.04,6.75,4.85,10.32,4.78,3.76-.07,14.86-1,17.43-2.62,1.3-.82,6.58-5.69,7.94-7.06,2.64-2.66,8.26-14.27,13.2-7.99,2.88,3.66-.63,21.25.89,27-1.08,8.78-15.43,14.43-5.49,22.59,9.32,7.65,25.33,17.39,33.15,25.34Z"/>
    <path class="cls-1" d="M1644.88,89.59c-.28,1.58,1.38,1.08,2.41.92,7.66-1.25,6.65-3.11,11.04-6.98,1.83-1.61,6.16-4.02,7.02-5.98,1.42-3.24-.24-11.55,5.83-9.82,3.43.98,3.05,6.31,2.47,9.12-2.37,11.39-29.21,25.4-29.7,28.36,5.64,9.95,14.14,18.53,18.71,29.09,1.91,4.42,8.58,21.06,9.16,24.84.4,2.62.88,14.48-1.57,15.3-7.48,2.49-11.88-6.16-12.38-12.36-.3-3.69.98-6.13,1.06-9.05.09-3.56-15.08-32.45-18.2-36.78-1.53-2.13-3.5-3.8-5.34-5.64-3.15,5.92-23.01,25.78-28.03,13.94-2.81-6.62,5.95-4.31,9.81-6.18,1.07-.52,9.03-6.58,7.72-7.77-9.28,2.79-16.86,6.97-27.06,4.56-5.52-1.3-8.65-7.98-3.21-9.42,4.74-1.26,12.66,6.43,19.27.84l-11.33-5.15c-4.53-3.79-8.57-5.08-6.46-12.14,1.23-4.11,6.76-2.77,9.71-1.12,3.66,2.05,4.61,6.63,5.74,7.5.84.64,9.73,3.31,10.29,2.89.22-.17,1.15-3.08.61-3.95-2.94-4.82-11.72-1.11-10.49-12.44,1.07-9.85,10.78-.17,13.92,3.42-1.71-4.6-3.9-22.11,1.67-23.9,9.29-2.98,6.46,23.85,7.84,23.91,4.24-4.28,6.15-10.82,7.24-16.77.73-3.97-1.43-14.84,5.51-13.06,10.06,2.59,8.57,14.66,5.54,22.1-1.36,3.34-5.58,10.42-8.78,11.72Z"/>
    <path class="cls-1" d="M1455.63,259.83c3.14,3.18,1.64,11.93,2.47,16.02.88,4.33,6.41,8.75,6.87,13.61,1.37.32,3.59.41,4.46-.83,2.78-3.99-4.48-21.92,8.51-18.62,3.82,2.71-4.04,17.12-3.06,21.56,5.54,1.22,10.56-15.79,15.56-9.04,3.74,5.03-11.13,11.76-9.56,17.04,3.43,3.23,21.81-12.33,26.85-7.85,2,16.43-16.45,14.17-26.47,17.75-1.05.37-2.93.59-1.39,2.1.45.44,10.8,1.96,12.46,2.04,5.85.3,16.4-2.36,20.9-.89,2.26.74,2.31,5.29.7,6.42-1.13.79-12.32.66-14.57.45-3.5-.34-5.93-2.01-9.98-2.08s-7.53,1.4-11.52,1.08c-1.85,11.37,16.86,12.67,19.49,18.02,5.05,10.28-12.94-.21-15.76-2.97-4.31-4.21-5.8-6.63-11.21-11.08-7.63-6.27-5.94-9.65-17.74-4.69-14.37,6.04-29.49,10.34-44.31,15.69-3.52,1.27-6.01,4.13-10.46,4.63-2.16.24-15.83-1.52-16.59-2.55-1.38-1.85.81-4.73,2.03-6.1,7.75-8.7,21.96-6.76,32.59-9.41,9.39-2.34,17.34-8.14,26.67-10.32,2.12-.49,6.16.24,7.13-.37,7.2-4.47-16.4-22.91-17.63-27.62-.63-2.41.39-8.03,2.47-9.35,6.06-3.85,11.42,12.52,13.87,16.04,2.56,3.69,7.17,6.04,10.42,9.07-.04-9.46-7.97-18.25-9-27.49-.39-3.51-.58-16.68,5.76-10.26Z"/>
    <path class="cls-1" d="M1233.88,223.57c1.73,1.79,6.89-4.62,7.45-6.04,1.46-3.63-1.52-12.13,4.87-11.77,5.66.32,5.53,5.7,3.13,9.76-1.05,1.78-3.36,2.1-4.49,3.51-1.94,2.42-1.95,6.37-5.96,8.53,10.83,1.05,6.79-.51,9.72-6.76,1.33-2.84,8.57.05,9.11.93,6.24,10.22-21.84,14.83-21.8,16.34,2.64,3.9,7.42,4.59,10.92,7.06,7.03,4.99,14.61,13.25,21.13,17.87,5.7,4.04,16.86,5.41,13.49,15.61-1.24,3.76-8.32,3.95-11.3,2.67-.27-.12-.39-1.35-.99-1.68-8.72-4.69-6.39-6.81-12.24-12.56-5.11-5.03-11.87-8.51-17.53-12.47-3.75-2.63-5.6-8.75-10.2-9.8-12.01-2.73-29.01,11.1-42.3,7.79.2-1.17-.37-4.5.05-4.96.53-.56,12.13-2.44,14.94-3.55,4.08-1.61,7.33-4.73,11.01-7-3.61-.58-7.88-2.46-11.5-2.49-3.4-.03-15.74,3.12-17.35-1.64-4.08-12.08,16.16-3.96,21.85-5.37.26-2.86-2.81-2.54-4.45-5.04-4.55-6.92,4.15-12.31,7.53-7.53,2.46,3.47-1.36,9.49,5.43,11.57.73-2.99-2.6-12.61,1.13-13.86,6.54-2.2,9.26,4.48,8.36,9.87,6.66.78,2.98-7.77,3-11.5.02-2.91,1.11-10.21,5.02-9.12,7.85,2.18.68,15.91,1.98,21.61Z"/>
    <path class="cls-1" d="M1095.87,421.08c.49-1.77,4.87-4.35,7-3.5l.99,8c.46-5.49,3.91-10.71,10.01-9.99-.9,6.23-8.75,8.11-6.98,15.99,3.06-.95,3.3-6.5,5.95-7.46,2.83-1.02,5.51,1.15,3.54,4.45-.58.97-4.48,2.49-4.47,3.51,0,.58,3.58,2.52,4,5.05.48,2.93-2.99,10.53-2.02,11.45.6.57,7.4-1.51,6,4-4.43.47-7.61-.07-10.99-2.99-1.36,4.55,3.71,5.8,4.79,8.7,1.5,4.06-1.69,4.34-4.37,2.37-2.27-1.67-2.43-6.77-5.42-8.07-1.22,2.95,2.87,12.92-.52,13.99-1.39.44-2.87-.15-3.33-1.65-1.1-3.59-.32-12.14-1.37-16.63-2.21-9.49-19.63-7.66-26.61-9.39-1.4-.35-14.44-5.4-15.13-5.87-7.93-5.44,7.48-12.01,14.47-6.47,2.16,1.71,2.58,4.33,5.19,5.81,5.93,3.35,12.98,1.27,19.29,3.21.7-3.96-.95-11.06,0-14.5Z"/>
  </g>
  <g>
    <path d="M813.61,1066.38c-3.18-.32-4.62-2.07-4.62-5.09l-3.34-110.3c0-3.02,1.75-4.62,5.09-4.78,17.19-.95,34.22.8,51.09,5.73,15.6,4.62,26.74,14.32,33.11,28.65,6.21,14.64,5.57,29.45.64,44.25-5.73,14.32-15.92,25.78-29.92,32.79-16.55,7.48-34.22,10.35-52.05,8.75ZM878.39,1005.42c-.16-36.13-36.13-42.82-48.7-44.57l-3.02,94.07c13.21-2.07,51.89-16.39,51.73-49.5Z"/>
    <path d="M973.09,1049.99c10.35-.16,18.94-7,22.28-18.14.48-2.39,3.02-3.34,5.57-2.07l9.55,5.57c2.55,1.43,3.18,4.14,1.75,6.68-8.44,14.8-21.96,22.12-39.95,21.33-19.42-.64-32.47-10.35-38.84-28.17-5.25-17.35-2.23-36.77,7-49.18,7.96-10.5,18.3-15.92,31.83-16.08,13.21-.16,23.88,4.62,32.31,14.8,7.96,10.03,11.3,21.65,9.71,34.06-.32,2.71-1.91,3.98-4.77,3.98h-58.73c.32,15.44,8.75,26.58,22.28,27.22ZM950.97,1015.93c9.39-4.3,18.78-6.53,28.81-6.53,5.09.16,10.03.8,14.96,1.91-.16-6.05-3.02-25.62-22.12-24.51-19.42,1.11-21.65,22.28-21.65,29.13Z"/>
    <path d="M1157.25,1061.45c0,3.18-1.91,4.62-4.62,4.62h-9.39c-3.02,0-4.78-1.43-4.78-4.62l-3.66-111.26c0-3.98,1.91-5.89,5.73-6.37,13.69-1.43,27.06-2.71,41.06-2.39,15.92.32,59.37,6.37,59.53,36.61-.16,33.74-41.06,40.43-53.64,41.22-9.87.96-19.74.8-28.81-.16l-1.43,42.34ZM1217.73,981.23c1.59-17.83-20.69-25.47-57.46-25.62l-1.27,49.66c6.69.32,12.89.32,19.74-.32,11.94-1.11,38.04-6.84,39-23.72Z"/>
    <path d="M1281.08,1061.29l-.64-112.85c-.16-2.86,1.59-4.62,4.78-4.62l14.32.64c3.18,0,4.78,1.75,4.62,4.46l-6.53,112.85c-.16,2.87-2.07,4.3-4.46,4.14l-8.44-.32c-2.23-.16-3.82-1.59-3.66-4.3Z"/>
    <path d="M1410,1063.52c-2.23,0-3.66-1.11-3.66-3.5l-.48-8.59c-7.16,6.05-15.44,9.07-24.67,9.39-21.17-.64-32.31-11.78-34.7-32.31-2.07-17.35,0-35.02,2.87-52.52.32-3.02,2.39-4.46,5.57-3.98l13.05,2.07c3.18.48,4.62,2.55,3.98,5.41-1.91,9.39-3.98,17.03-5.41,26.58-4.14,22.76.16,42.5,20.21,39.63,7.16-.96,12.89-4.14,18.78-8.12l-2.07-59.21c-.16-3.02,1.75-4.77,4.77-4.77l12.26-.16c3.18,0,4.93,1.43,4.93,4.3l-2.39,81.97c0,2.55-1.43,3.82-3.98,3.82h-9.07Z"/>
    <path d="M1527.15,1061.92l-41.7-39.31-2.07,1.27-.96,40.75c0,2.39-1.43,3.5-3.66,3.5h-7.48c-2.39.16-3.82-1.11-3.82-3.5l-3.02-115.87c0-2.39,1.43-3.98,4.14-3.98h12.57c3.02,0,4.46,1.59,4.46,4.14l-1.59,56.34,39.95-29.13c2.07-1.43,4.46-1.27,6.05.64l6.37,9.39c1.27,2.07,1.11,4.3-.96,5.57l-32.95,20.05,36.77,39.95c1.43,1.75,1.11,3.82-.32,5.25l-6.37,5.41c-1.75,1.27-3.98,1.11-5.41-.48Z"/>
    <path d="M1587.31,988.71h-18.14c-1.59,0-2.71-.8-2.71-2.39,0-1.27.8-2.07,2.23-2.71,7-3.18,13.85-5.57,19.74-7.64l4.77-27.22c.48-2.71,2.39-4.14,5.41-3.98l12.89,1.27c3.18.32,4.93,2.23,4.3,5.25l-4.93,25.94c5.09,2.23,10.35,3.5,15.28,6.37,1.11.64,1.91,1.43,1.91,2.71,0,1.59-1.11,2.39-2.39,2.39h-18.14c-3.82,13.53-5.25,27.7-4.14,41.06,1.27,12.57,6.53,20.21,18.3,21.49,2.23.16,3.82,1.27,4.62,2.87l1.75,3.82c1.11,2.23,0,4.14-2.23,4.78-18.14,4.78-32.95-4.14-37.72-18.46-6.05-14.8-4.3-36.93-.8-55.55Z"/>
    <path d="M1731.35,1063.52c-2.23,0-3.66-1.11-3.66-3.5l-.48-8.59c-7.16,6.05-15.44,9.07-24.67,9.39-21.17-.64-32.31-11.78-34.7-32.31-2.07-17.35,0-35.02,2.87-52.52.32-3.02,2.39-4.46,5.57-3.98l13.05,2.07c3.18.48,4.62,2.55,3.98,5.41-1.91,9.39-3.98,17.03-5.41,26.58-4.14,22.76.16,42.5,20.21,39.63,7.16-.96,12.89-4.14,18.78-8.12l-2.07-59.21c-.16-3.02,1.75-4.77,4.77-4.77l12.26-.16c3.18,0,4.93,1.43,4.93,4.3l-2.39,81.97c0,2.55-1.43,3.82-3.98,3.82h-9.07Z"/>
    <path d="M1808.39,1066.54h-9.39c-2.55,0-4.14-1.27-4.14-4.14l-2.23-79.74c-.16-2.71,1.59-4.46,4.62-4.46h12.89c3.34,0,5.09,1.59,5.09,4.62l-2.39,79.9c-.16,2.71-1.91,3.82-4.46,3.82ZM1797.09,944.14h13.69c2.86,0,4.3,1.59,4.14,3.98l-.64,13.85c-.16,2.39-1.59,3.98-4.14,3.98h-12.26c-2.55,0-3.98-1.43-4.14-3.98l-.8-13.85c-.16-2.55,1.43-3.98,4.14-3.98Z"/>
    <path d="M1920.44,1054.12c4.14-15.92,4.78-39.15-2.55-49.34-9.39-13.05-29.13-5.89-34.22-1.43l-1.59,55.23c0,2.55-1.43,3.82-3.98,3.82h-8.75c-2.39,0-3.98-1.27-3.98-3.66l-2.55-81.33c0-3.02,1.59-4.62,4.78-4.62h12.1c3.02,0,4.78,1.59,4.78,4.3l-.16,5.89c8.91-5.41,19.1-8.12,29.45-6.69,11.14,1.59,18.46,7.8,22.92,18.15,7.48,14.48,7.32,42.81.96,63.82-.64,2.39-2.55,3.34-5.09,2.87l-9.07-1.43c-2.55-.48-3.98-2.55-3.02-5.57Z"/>
  </g>
  <g>
    <path d="M956.88,1144.33c-4.54-10.21-8.51-20.58-12.02-31.26-.41-1.08.05-1.91,1.08-2.22l4.8-1.19c1.08-.31,1.91.05,2.22,1.03l9.03,32.5,12.07-31.99c.31-.77.93-1.19,1.81-1.19l3.35.1c.93.05,1.34.67,1.08,1.55-3.25,11.5-7.53,22.6-12.79,33.22-2.17,5-8.56,4.9-10.63-.57Z"/>
    <path d="M1014.66,1147.38l-2.17-.57c-.72-.16-1.08-.67-.93-1.5l.16-.98c-2.94,2.22-6.19,3.4-9.8,3.4-4.49.26-9.23-1.81-10.27-6.24-1.75-6.6,2.99-12.12,10.52-12.33,3.66-.1,6.81.72,9.8,2.37.36-2.63-.41-4.64-2.32-6.14-2.73-2.17-8.62-1.65-12.74.72-.88.46-1.65.26-2.06-.46l-1.7-3.04c-.41-.77-.21-1.55.62-1.96,4.85-2.84,10.06-3.77,15.58-2.58,5.47,1.75,8.31,6.4,8.25,12.49-.05,5.42-.52,10.83-1.44,16.04-.16.72-.72.98-1.5.77ZM1012.24,1136.34c-3.87-2.89-11.2-3.92-14.55-.67-2.84,3.46.77,8.31,7.33,6.96,2.84-.57,5.16-2.01,7.17-3.87l.05-2.42Z"/>
    <path d="M1049.85,1144.8c1.34-5.16,1.55-12.69-.83-15.99-3.04-4.23-9.44-1.91-11.09-.46l-.52,17.9c0,.83-.46,1.24-1.29,1.24h-2.84c-.77,0-1.29-.41-1.29-1.19l-.83-26.36c0-.98.52-1.5,1.55-1.5h3.92c.98,0,1.55.52,1.55,1.39l-.05,1.91c2.89-1.75,6.19-2.63,9.54-2.17,3.61.52,5.98,2.53,7.43,5.88,2.42,4.69,2.37,13.88.31,20.69-.21.77-.83,1.08-1.65.93l-2.94-.46c-.83-.15-1.29-.83-.98-1.81Z"/>
    <path d="M1116.03,1147.33l-13.52-12.74-.67.41-.31,13.21c0,.77-.46,1.13-1.19,1.13h-2.42c-.77.05-1.24-.36-1.24-1.13l-.98-37.56c0-.77.46-1.29,1.34-1.29h4.08c.98,0,1.44.52,1.44,1.34l-.52,18.26,12.95-9.44c.67-.46,1.44-.41,1.96.21l2.06,3.04c.41.67.36,1.39-.31,1.81l-10.68,6.5,11.92,12.95c.46.57.36,1.24-.1,1.7l-2.06,1.75c-.57.41-1.29.36-1.75-.15Z"/>
    <path d="M1135.12,1147.12l-.21-36.58c-.05-.93.52-1.5,1.55-1.5l4.64.21c1.03,0,1.55.57,1.5,1.44l-2.12,36.58c-.05.93-.67,1.39-1.44,1.34l-2.73-.1c-.72-.05-1.24-.52-1.19-1.39Z"/>
    <path d="M1169.27,1143.46c3.35-.05,6.14-2.27,7.22-5.88.16-.77.98-1.08,1.81-.67l3.1,1.81c.83.46,1.03,1.34.57,2.17-2.73,4.8-7.12,7.17-12.95,6.91-6.29-.21-10.52-3.35-12.59-9.13-1.7-5.62-.72-11.92,2.27-15.94,2.58-3.41,5.93-5.16,10.32-5.21,4.28-.05,7.74,1.5,10.47,4.8,2.58,3.25,3.66,7.02,3.15,11.04-.1.88-.62,1.29-1.55,1.29h-19.04c.1,5,2.84,8.62,7.22,8.82ZM1162.1,1132.42c3.04-1.39,6.09-2.12,9.34-2.12,1.65.05,3.25.26,4.85.62-.05-1.96-.98-8.31-7.17-7.95-6.29.36-7.02,7.22-7.02,9.44Z"/>
    <path d="M1202.19,1148.82h-3.04c-.83,0-1.34-.41-1.34-1.34l-.72-25.85c-.05-.88.52-1.44,1.5-1.44h4.18c1.08,0,1.65.52,1.65,1.5l-.77,25.9c-.05.88-.62,1.24-1.44,1.24ZM1198.53,1109.15h4.44c.93,0,1.39.52,1.34,1.29l-.21,4.49c-.05.77-.52,1.29-1.34,1.29h-3.97c-.83,0-1.29-.46-1.34-1.29l-.26-4.49c-.05-.83.46-1.29,1.34-1.29Z"/>
    <path d="M1238.51,1144.8c1.34-5.16,1.55-12.69-.83-15.99-3.04-4.23-9.44-1.91-11.09-.46l-.52,17.9c0,.83-.46,1.24-1.29,1.24h-2.84c-.77,0-1.29-.41-1.29-1.19l-.83-26.36c0-.98.52-1.5,1.55-1.5h3.92c.98,0,1.55.52,1.55,1.39l-.05,1.91c2.89-1.75,6.19-2.63,9.54-2.17,3.61.52,5.98,2.53,7.43,5.88,2.42,4.69,2.37,13.88.31,20.69-.21.77-.83,1.08-1.65.93l-2.94-.46c-.83-.15-1.29-.83-.98-1.81Z"/>
    <path d="M1270.54,1143.46c3.35-.05,6.14-2.27,7.22-5.88.16-.77.98-1.08,1.81-.67l3.1,1.81c.83.46,1.03,1.34.57,2.17-2.73,4.8-7.12,7.17-12.95,6.91-6.29-.21-10.52-3.35-12.59-9.13-1.7-5.62-.72-11.92,2.27-15.94,2.58-3.41,5.93-5.16,10.32-5.21,4.28-.05,7.74,1.5,10.47,4.8,2.58,3.25,3.66,7.02,3.15,11.04-.1.88-.62,1.29-1.55,1.29h-19.04c.1,5,2.84,8.62,7.22,8.82ZM1263.37,1132.42c3.04-1.39,6.09-2.12,9.34-2.12,1.65.05,3.25.26,4.85.62-.05-1.96-.98-8.31-7.17-7.95-6.29.36-7.02,7.22-7.02,9.44Z"/>
    <path d="M1341.53,1147.84c-.72,0-1.19-.36-1.19-1.13l-.16-2.79c-2.32,1.96-5,2.94-8,3.04-6.86-.21-10.47-3.82-11.25-10.47-.67-5.62,0-11.35.93-17.02.1-.98.77-1.45,1.81-1.29l4.23.67c1.03.15,1.5.83,1.29,1.75-.62,3.04-1.29,5.52-1.75,8.62-1.34,7.38.05,13.77,6.55,12.85,2.32-.31,4.18-1.34,6.09-2.63l-.67-19.19c-.05-.98.57-1.55,1.55-1.55l3.97-.05c1.03,0,1.6.46,1.6,1.39l-.77,26.57c0,.83-.46,1.24-1.29,1.24h-2.94Z"/>
    <path d="M1379.5,1147.33l-13.52-12.74-.67.41-.31,13.21c0,.77-.46,1.13-1.19,1.13h-2.42c-.77.05-1.24-.36-1.24-1.13l-.98-37.56c0-.77.46-1.29,1.34-1.29h4.08c.98,0,1.44.52,1.44,1.34l-.52,18.26,12.95-9.44c.67-.46,1.44-.41,1.96.21l2.06,3.04c.41.67.36,1.39-.31,1.81l-10.68,6.5,11.92,12.95c.46.57.36,1.24-.1,1.7l-2.06,1.75c-.57.41-1.29.36-1.75-.15Z"/>
    <path d="M1424.8,1123.59h-5.88c-.52,0-.88-.26-.88-.77,0-.41.26-.67.72-.88,2.27-1.03,4.49-1.81,6.4-2.48l1.55-8.82c.16-.88.77-1.34,1.75-1.29l4.18.41c1.03.1,1.6.72,1.39,1.7l-1.6,8.41c1.65.72,3.35,1.14,4.95,2.06.36.21.62.46.62.88,0,.52-.36.77-.77.77h-5.88c-1.24,4.38-1.7,8.98-1.34,13.31.41,4.08,2.12,6.55,5.93,6.96.72.05,1.24.41,1.5.93l.57,1.24c.36.72,0,1.34-.72,1.55-5.88,1.55-10.68-1.34-12.23-5.98-1.96-4.8-1.39-11.97-.26-18Z"/>
    <path d="M1465.76,1117.82c7.07.62,12.02,6.09,11.92,14.29-.31,11.3-7.12,16.15-13.52,15.99-8.51-.21-13.26-5.37-13.57-13.1-.62-10.73,5.99-17.7,15.17-17.18ZM1463.23,1143.4c4.8.31,8.2-4.38,8.46-10.89.05-4.95-2.06-9.34-6.66-9.65-4.9-.31-8.05,3.66-8.62,9.34-.88,6.09,1.96,10.89,6.81,11.2Z"/>
    <path d="M1493.88,1123.59h-5.88c-.52,0-.88-.26-.88-.77,0-.41.26-.67.72-.88,2.27-1.03,4.49-1.81,6.4-2.48l1.55-8.82c.16-.88.77-1.34,1.75-1.29l4.18.41c1.03.1,1.6.72,1.39,1.7l-1.6,8.41c1.65.72,3.35,1.14,4.95,2.06.36.21.62.46.62.88,0,.52-.36.77-.77.77h-5.88c-1.24,4.38-1.7,8.98-1.34,13.31.41,4.08,2.12,6.55,5.93,6.96.72.05,1.24.41,1.5.93l.57,1.24c.36.72,0,1.34-.72,1.55-5.88,1.55-10.68-1.34-12.23-5.98-1.96-4.8-1.39-11.97-.26-18Z"/>
    <path d="M1551.04,1151.25c-.21-.67.21-1.13.88-1.24,4.13-.98,7.79-3.77,9.44-7.17-1.55,1.29-4.23,1.75-7.58,1.39-2.73-.26-6.45-2.53-8.15-6.91-1.65-4.49-.98-9.7,1.24-13.16,2.79-4.08,6.71-5.37,10.68-5,2.68.26,4.18,1.44,5.06,2.73l-.31-2.22c-.15-.93.36-1.55,1.39-1.6l3.51-.26c.98-.05,1.55.36,1.65,1.19.77,6.19.88,12.12.26,18.52-1.08,9.49-6.6,15.12-16.3,16.04-.72.05-1.29-.21-1.39-.93l-.36-1.39ZM1550.73,1134.12c1.13,4.69,4.38,6.04,6.4,6.04,3.09,0,6.5-1.96,6.45-9.34-.36-4.39-3.15-7.17-7.02-7.22-4.08.15-6.96,5-5.83,10.52Z"/>
    <path d="M1592.62,1131.44l-.57,15.94c0,.77-.52,1.24-1.29,1.24h-2.79c-.72,0-1.19-.41-1.19-1.19l-.83-27.34c-.05-.93.52-1.39,1.5-1.39h4.02c.98,0,1.5.46,1.44,1.44l-.21,3.82c5.11-4.08,10.52-4.64,16.15-1.81.77.41.98,1.19.57,2.01l-1.5,3.04c-.41.83-1.29.98-2.12.52-5.42-2.53-9.8-1.29-13.21,3.71Z"/>
    <path d="M1635.8,1117.82c7.07.62,12.02,6.09,11.92,14.29-.31,11.3-7.12,16.15-13.52,15.99-8.51-.21-13.26-5.37-13.57-13.1-.62-10.73,5.99-17.7,15.17-17.18ZM1633.27,1143.4c4.8.31,8.2-4.38,8.46-10.89.05-4.95-2.06-9.34-6.66-9.65-4.9-.31-8.05,3.66-8.62,9.34-.88,6.09,1.96,10.89,6.81,11.2Z"/>
    <path d="M1663.92,1123.59h-5.88c-.52,0-.88-.26-.88-.77,0-.41.26-.67.72-.88,2.27-1.03,4.49-1.81,6.4-2.48l1.55-8.82c.16-.88.77-1.34,1.75-1.29l4.18.41c1.03.1,1.6.72,1.39,1.7l-1.6,8.41c1.65.72,3.35,1.14,4.95,2.06.36.21.62.46.62.88,0,.52-.36.77-.77.77h-5.88c-1.24,4.38-1.7,8.98-1.34,13.31.41,4.08,2.12,6.55,5.93,6.96.72.05,1.24.41,1.5.93l.57,1.24c.36.72,0,1.34-.72,1.55-5.88,1.55-10.68-1.34-12.23-5.98-1.96-4.8-1.39-11.97-.26-18Z"/>
    <path d="M1702.97,1143.46c3.35-.05,6.14-2.27,7.22-5.88.16-.77.98-1.08,1.81-.67l3.1,1.81c.83.46,1.03,1.34.57,2.17-2.73,4.8-7.12,7.17-12.95,6.91-6.29-.21-10.52-3.35-12.59-9.13-1.7-5.62-.72-11.92,2.27-15.94,2.58-3.41,5.93-5.16,10.32-5.21,4.28-.05,7.74,1.5,10.47,4.8,2.58,3.25,3.66,7.02,3.15,11.04-.1.88-.62,1.29-1.55,1.29h-19.04c.1,5,2.84,8.62,7.22,8.82ZM1695.8,1132.42c3.04-1.39,6.09-2.12,9.34-2.12,1.65.05,3.25.26,4.85.62-.05-1.96-.98-8.31-7.17-7.95-6.29.36-7.02,7.22-7.02,9.44Z"/>
    <path d="M1760.03,1142.32l-.31,10.16c0,.72-.46,1.13-1.19,1.13h-2.42c-.67,0-1.13-.36-1.13-1.13l-.98-32.09c0-.88.46-1.39,1.5-1.39h3.87c.93,0,1.45.52,1.45,1.34l-.05,2.06c2.06-2.22,4.64-3.35,7.69-3.3,5.21.1,9.39,2.89,11.3,8.05,1.34,4.44.67,10.37-2.22,14.24-2.22,2.79-5.06,4.23-8.56,4.49-3.56.31-6.55-.88-8.93-3.56ZM1760.49,1129.22l-.26,6.35c.77,3.41,2.94,5.26,6.4,5.52,4.7-.1,7.38-3.35,7.48-7.79.16-4.95-2.58-8.87-7.63-9.03-3.2.1-5.16,1.86-5.98,4.95Z"/>
    <path d="M1812.91,1147.84c-.72,0-1.19-.36-1.19-1.13l-.16-2.79c-2.32,1.96-5,2.94-8,3.04-6.86-.21-10.47-3.82-11.25-10.47-.67-5.62,0-11.35.93-17.02.1-.98.77-1.45,1.81-1.29l4.23.67c1.03.15,1.5.83,1.29,1.75-.62,3.04-1.29,5.52-1.75,8.62-1.34,7.38.05,13.77,6.55,12.85,2.32-.31,4.18-1.34,6.09-2.63l-.67-19.19c-.05-.98.57-1.55,1.55-1.55l3.97-.05c1.03,0,1.6.46,1.6,1.39l-.77,26.57c0,.83-.46,1.24-1.29,1.24h-2.94Z"/>
    <path d="M1850.88,1147.33l-13.52-12.74-.67.41-.31,13.21c0,.77-.46,1.13-1.19,1.13h-2.42c-.77.05-1.24-.36-1.24-1.13l-.98-37.56c0-.77.46-1.29,1.34-1.29h4.08c.98,0,1.44.52,1.44,1.34l-.52,18.26,12.95-9.44c.67-.46,1.44-.41,1.96.21l2.06,3.04c.41.67.36,1.39-.31,1.81l-10.68,6.5,11.92,12.95c.46.57.36,1.24-.1,1.7l-2.06,1.75c-.57.41-1.29.36-1.75-.15Z"/>
  </g>
</svg>