<?xml version="1.0" encoding="UTF-8"?>
<svg id="Laag_1" xmlns="http://www.w3.org/2000/svg" version="1.1" viewBox="0 0 1785.8 1785.8">
  <!-- Generator: Adobe Illustrator 29.3.0, SVG Export Plug-In . SVG Version: 2.1.0 Build 146)  -->
  <defs>
    <style>
      .st0 {
        fill: #fff;
      }

      .st1 {
        fill: #fefefe;
      }
    </style>
  </defs>
  <path class="st1" d="M1670.7,51.1c3.3-1.4,7.8-8.8,9.2-12.2,3.2-7.8,4.7-20.4-5.8-23.1-7.2-1.9-5,9.5-5.8,13.6-1.1,6.2-3.1,13.1-7.6,17.5-1.4,0,1.5-28.1-8.2-25-5.8,1.9-3.5,20.2-1.7,25-3.3-3.8-13.4-13.9-14.5-3.6-1.3,11.9,7.9,8,11,13,.6.9-.4,4-.6,4.1-.6.4-9.9-2.4-10.8-3-1.2-.9-2.2-5.7-6-7.8-3.1-1.7-8.9-3.1-10.1,1.2-2.2,7.4,2,8.7,6.8,12.7l11.8,5.4c-6.9,5.8-15.2-2.2-20.1-.9-5.7,1.5-2.4,8.5,3.4,9.8,10.7,2.5,18.6-1.9,28.3-4.8,1.4,1.2-7,7.6-8.1,8.1-4,2-13.2-.5-10.3,6.5,5.2,12.4,26-8.4,29.3-14.6,1.9,1.9,4,3.7,5.6,5.9,3.3,4.5,19.1,34.7,19,38.4,0,3-1.4,5.6-1.1,9.5.5,6.5,5.1,15.5,12.9,12.9,2.6-.9,2.1-13.3,1.6-16-.6-4-7.6-21.3-9.6-26-4.8-11-13.7-20-19.6-30.4.5-3.1,28.6-17.7,31-29.6.6-2.9,1-8.5-2.6-9.5-6.4-1.8-4.6,6.9-6.1,10.3-.9,2-5.4,4.6-7.3,6.2-4.6,4-3.5,6-11.5,7.3-1.1.2-2.8.7-2.5-1h0ZM583.4,206.2c-8.2-8.3-24.9-18.5-34.6-26.5-10.4-8.5,4.6-14.4,5.7-23.6-1.6-6,2.1-24.4-.9-28.2-5.2-6.6-11,5.6-13.8,8.4-1.4,1.4-6.9,6.5-8.3,7.4-2.7,1.7-14.3,2.7-18.2,2.7s-9.5-.8-10.8-5c-1.4-4.5,3.5-10.8-2.3-13.4s-9.1,5.9-14.6,7.4c-13,3.4-41,9.2-53.8,9.9-72.3,4-139.5-13.9-202.2,33-32.3,24.2-61.2,46.4-85.6,79.5-3.9,5.3-5,14.5-13.5,14.8-5,.2-5-7-9.1-9.2-10.9,9.3,4,20.2-12.4,28.4-15,7.6-15.6,7.8-28.4,18.6-1.8,1.5-7.7,4.4-7.9,4.8-.5,1.5-.6,3.7,1.6,3.6,4.1-.2,8.4-3.2,12.8-3.9s8.9.3,13.3-1.4c7.6,4.4.4,9-2,13.7-25.6,49.9-37.4,94.9-18.9,150.3,6.4,19.1,12.3,22,22.9,36.7,22.4,31.1,44.6,69.3,70.6,96.6,13.3,14,27.3,27.2,40.9,40.7l41.3,25.7c11.7,1.8-4.3-16.4,4.6-19.4,7.2-2.4,12.9,2.8,18.9,5.3,12.3,5.2,41.6,18.5,54.1,19.1,5.4.3,12.4-1.1,18.5-.9,9.4.4,20.2,3,29.2,3.2,8.6.2,18.6-1.9,27.2-2.2,4.5-.2,19.1-.7,22.1,1,5.1,3,4.8,20.2,2.8,24.9-1.4,3.4-14.9,12.9-18.6,17-12.7,14.2-34.8,57.3-37.9,76-5.1,31.7-3.3,65.5-2.9,97.4,7.8,5.3,7.4,14.8,7.9,23.5,2.3,45.8,1.9,109.8-5.5,154.5-2.5,15.1-9.7,31.3-13,46.6-9.9,46.2-18.4,81.1-35.3,125.6-1.4,3.7-11,23.3-9.8,25,5.3,2.4,9,5.7,14.7,7.8,6.4,2.3,16.8,4.5,23.6,5.7,10.5,1.9,22.6-2.4,24.3,12.2.6,5.1-1,9.2-1.1,13.6-.4,24.8,1.9,47.1,13.1,69.6,9,18.2,27.6,28,17.5,51.9-6.5,15.4-17.5,31.8-24.6,47.5-2.8,6.1-5.3,12-8.2,17.9-4.9,10.1,2.1,9.3,7.5,13.8,8.2,7,17.5,14.7,25.2,21.9,2.4,2.3,10,9.5,10.9,12.1.7,2-3.2,10.4-4,13.7-4.4,18.1,5.5,28.3,6.6,46.3,3.9,60.8-33.1,64.9-46.6,113.4-2.7,9.8-8,31.2,6.3,33.4,11.8,1.8,30-.4,42.8,0,5.5.2,12.3,2,17.7,2.2,20.8.9,42.6-1.1,63.7,1,9.4.9,17.8,6.3,27.3,7.2,9.6.9,20.4.1,30.2.4,3.1,0,6.1,1.9,9.4,1.9s15.8-.7,18.6-1.3c6.5-1.5,10.8-10.7,4.9-14.9-9.4-3.8-21.7-5.4-30.6-10.1-9.3-4.9-20.8-13.4-28.6-20.6-14.2-8.9-29.2-16.7-41-29.1-.9-1.2-1.1-2.4-1.1-3.9.2-30.1,15.1-66.5,30.1-92.3,1.6-2.8,9.9-16.8,11.7-17.6,15.4-2.6,34.7,1.7,49.6-.6,4.9-.8,8.6-4.8,11-8.8,9.8-15.7,26.1-48,31.9-65.3,17.6-52.9,33.5-107.1,48.1-161,2.4-8.9,6.8-35.2,10.5-40.7,7.9-11.9,25.8-14.6,37.8-19.7,17.2-7.5,36.6-20.4,54.6-24.8,2.5-.6,16.5-2.2,16.8-3.1-.1-1.1.3-2.4-.3-3.4-.4-.6-10.5-6-12.6-7.5-22.8-17.4-39.3-40.4-50.4-66.9-15.9-38-33.6-86.7-40.1-127.1-2.4-15.1-2.7-30.6-4.3-45.8-1.8-16.5-6.4-36-6.4-52.3,0-8,10.7-21,16.9-26.1,6.8-5.6,15.5-13.5,22.6-18.2,10.5-6.9,23.5-12.4,34.1-19.2,20.1-12.9,37.2-30.3,59.6-39.7,20.5-20,67.8-40.9,82.3-64.1,4.1-6.7,6.6-13,7.3-20.9.7-8.5-2.2-17.3,2.7-24.4,6.6-9.5,28.8-19.7,38.1-27.8,4.9-4.3,12.4-12.3,17.2-17.3s18.8-27.6,20.4-8.9c.9,10.3-2.8,26.5-3.1,37.6-.3,7.7-2.8,19.6,7,20.1,8.5.4,10.5-11.5,10.7-18.1.2-7.7-2-18.2-2-26,0-5.2.1-24.8,4.3-27.2,1.9-1.1,5.4-1.2,8-2.4,6.6-3.2,13.8-10.3,16.3-17.2,5.4-15.1,1.8-49.6-5.3-64.2-2.3-4.7-9.1-13.4-13.8-15.5-3.5-1.6-15,3.4-17.5-1.2-1.9-3.6-2.3-20.6-3.6-26.7-1.5-7-4.7-13.1-5.9-20.3-1.6-9.5-1.1-19-3.8-28.6-1.2-4.4-4-5.5-3.8-11,.4-8.7,4.6-2.6,7.7-2.8s5.8-4.3,7.7-4.8c3.8-1.1,6.8,2.1,11.7-2.9,1.5-1.5,7.3-10.6,8.9-13.1,1.2-2,1.2-4.7,2.7-6.7s5-3.1,5.8-4.7c1.4-2.8-.3-7.8.7-9.3.6-.9,4.5-.3,5.1-3.8,1-6.3-5.1-4.5-8-6.7-2-1.5-3.1-8-7.1-7.2-.9.2-11,12.2-12.3,14.3-11.7-.8-5.2-3.3-4.2-6.8,2.3-7.7-8.2-6-8.2-8.2,1.3-1.9,4.7-2.6,5.9-4,1.6-1.8,1.6-5.3,4.1-6.9,1.4-.9,10.4-2.2,12.5-2.2,8.5-.2,13.6,12,23.2,7.6,6.8-3.1-.7-5.3-2.2-6.4-3.7-2.8,3.5-4.1,4.7-5.8,4-5.4-2.3-5-4.3-7.6-1.2-1.6-4.4-11-5.4-11.6-1.1-.7-4,.3-6.1-.7-1.4-.7-2.2-3.5-3.6-4.7-5.1-4.6-6.4,1.1-9.4,1.1s-4.8-5.1-8.2-4.1c-.7.2-8,11.2-8,11.9,0,3.3,11.2,8.6,7.9,15.2-3.1,6.2-31.7,14.5-24.9-2.9.5-1.3,2.4-1.1,3-3.3,2.3-7.4-2-5-7-7.8-3.5-2-5.1-6.1-7.4-7.2-1.9-.9-13.1-4.1-14.9-4-2.4.2-3.8,1.6-5.5,1.9-2.9.5-5.5-.2-8.4,1-2.7,1.1-7.3,10.1-11.3,12.7-4.8,3-11.9,2.9-17,8.1-2.6,2.6-6.6,13.1-7.2,16.8s1.1,6.1.9,9.2c-.2,2.6-2.4,4.1-2.3,7.3.2,5.7,14.8,2.1,13.7,7.3-.7,3.5-8.8.4-10.7.7-2,.4-6.2,4.4-7.3,6.4-.6,1.1-4.1,9.9-4,10.7,0,2.4,7.3,11.1,9.6,12.4s5.2,1.3,7.8,2.6c3,1.5,6.6,6.6,8.5,7.2s4.2-.2,5.9.4c1.5.5,1.9,4.9,6.9,3,.9,3.2-2.7,4.1-3.2,6.8-1.6,9.6,8.2,10.1,11,1.5,5.9,8.2,7.4,3.7,13.7,3.2,1.8-.1,3.3,1.1,5.7.6,2.5-.5,6.6-4.9,8.9-1.7.6.9,3.3,10,3.8,12,3.4,12.8,3.4,22.8,5.1,35.6,1.7,12.8,4.8,24.8,5.3,37.5-8,3.6-12.3,3.1-17,11.5-9.2,16.5-11.3,13.9-26.3,22.8-24,14.3-66.3,37.1-92.1,44.8-5,1.5-6.1,3.8-12.5,3.2-10.5-1-11.6-15-21.9-13.6-7.8,1.1-27,17.5-37.2,21.4-16.3,6.2-27.3,5.2-43.1,8.1-8.5,1.6-16.5,5.7-25.5,6.9-13.9,2-47.8,3-61.3.9-13.7-2.1-1.6-16.5-9.1-20.1-3.8-1.8-8.2.5-12,.6-7.7.2-26.4-.6-28.6-10.2-3.9-17.5,7-21.1,20.7-26.9,38.3-16.2,99.6-27.8,122.7-64.4,8.6-13.7-3.1-16-6.7-27.7-1.3-4.2-1.7-12.4-1.1-16.7.5-3.8,6.2-8.3,8.3-12.6,1.1-2.3,3.4-9.1,3.2-11.3-.7-7.2-12.5-6.6-12.5-15.6,0-8.4,9.6-11.1,11.2-17.1.3-1.4,1.2-10.8,1.2-12.3-.3-7.7-9.8-13.9-16.5-15.7-4.5-1.2-19.6-1-21-3.3-3.8-6,4.9-11.9,7.8-17.2,3.3-6,6.2-14.8,4-21.6-.6-1.8-6.2-10.1-7.5-11.3-10.5-9.3-30-.4-40-6.7-2-1.3-7.8-8.3-9.6-10.6-2.6-3.4-7.7-10.9-7.8-15,0-.9,3.8-14.5-.2-11.5-6.1,10.5-15.4,2.9-15.7-7.3-.4-10.7,2.1-22.8,1-34.4-.9-9.6-16.6-56.9-22-64.8s-15.4-19.5-22.2-26.4h0ZM1241.1,191.2c-1.3-6,6.1-20.3-2.1-22.6-4.1-1.1-5.2,6.5-5.2,9.5,0,3.9,3.8,12.8-3.1,12,.9-5.6-1.9-12.6-8.7-10.3-3.9,1.3-.4,11.4-1.2,14.5-7.1-2.2-3.1-8.5-5.7-12.1-3.5-5-12.6.6-7.9,7.9,1.7,2.6,4.9,2.3,4.7,5.3-5.9,1.5-27.1-7-22.8,5.6,1.7,5,14.6,1.7,18.1,1.7,3.8,0,8.2,2,12,2.6-3.8,2.4-7.2,5.6-11.5,7.3-2.9,1.2-15.1,3.1-15.6,3.7-.4.5.2,4,0,5.2,13.9,3.5,31.7-11,44.2-8.1,4.8,1.1,6.7,7.5,10.7,10.2,5.9,4.1,13,7.8,18.3,13,6.1,6,3.7,8.2,12.8,13.1.6.3.8,1.6,1,1.8,3.1,1.3,10.5,1.1,11.8-2.8,3.5-10.7-8.1-12.1-14.1-16.3-6.8-4.8-14.7-13.5-22.1-18.7-3.6-2.6-8.7-3.3-11.4-7.4,0-1.6,29.3-6.4,22.8-17.1-.6-.9-8.1-3.9-9.5-1-3.1,6.5,1.2,8.2-10.2,7.1,4.2-2.3,4.2-6.4,6.2-8.9,1.2-1.5,3.6-1.8,4.7-3.7,2.5-4.2,2.6-9.9-3.3-10.2-6.7-.4-3.6,8.5-5.1,12.3-.6,1.5-6,8.2-7.8,6.3h0ZM1472.9,229.1c-6.6-6.7-6.4,7.1-6,10.7,1.1,9.7,9.4,18.9,9.4,28.7-3.4-3.2-8.2-5.6-10.9-9.5s-8.2-20.8-14.5-16.8c-2.2,1.4-3.2,7.3-2.6,9.8,1.3,4.9,26,24.2,18.4,28.9-1,.6-5.2-.1-7.5.4-9.8,2.3-18.1,8.3-27.9,10.8-11.1,2.8-26,.7-34.1,9.8-1.3,1.4-3.6,4.4-2.1,6.4.8,1.1,15.1,2.9,17.3,2.7,4.7-.5,7.3-3.5,10.9-4.8,15.5-5.6,31.3-10.1,46.3-16.4,12.3-5.2,10.6-1.6,18.5,4.9,5.7,4.6,7.2,7.2,11.7,11.6,2.9,2.9,21.7,13.8,16.5,3.1-2.7-5.6-22.3-6.9-20.4-18.8,4.2.3,7.8-1.2,12-1.1s6.8,1.8,10.4,2.2c2.4.2,14,.4,15.2-.5,1.7-1.2,1.6-5.9-.7-6.7-4.7-1.5-15.7,1.3-21.8.9-1.7,0-12.6-1.7-13-2.1-1.6-1.6.4-1.8,1.5-2.2,10.5-3.7,29.8-1.4,27.7-18.6-5.3-4.7-24.5,11.6-28.1,8.2-1.6-5.5,13.9-12.6,10-17.8-5.2-7-10.5,10.7-16.3,9.4-1-4.7,7.2-19.7,3.2-22.5-13.6-3.4-6,15.3-8.9,19.5-.9,1.3-3.2,1.2-4.7.9-.5-5.1-6.3-9.7-7.2-14.2-.9-4.3.7-13.4-2.6-16.7h0ZM1096.9,397.6c-1,3.6.7,11,0,15.2-6.6-2-14,.1-20.2-3.4-2.7-1.5-3.2-4.3-5.4-6.1-7.3-5.8-23.4,1.1-15.1,6.8.7.5,14.3,5.8,15.8,6.1,7.3,1.8,25.5,0,27.8,9.8,1.1,4.7.3,13.6,1.4,17.4.5,1.6,2,2.2,3.5,1.7,3.5-1.1-.7-11.5.5-14.6,3.1,1.4,3.3,6.7,5.7,8.4,2.8,2.1,6.1,1.8,4.6-2.5-1.1-3-6.4-4.3-5-9.1,3.5,3.1,6.9,3.6,11.5,3.1,1.5-5.7-5.6-3.6-6.3-4.2-1-1,2.6-8.9,2.1-12-.4-2.6-4.2-4.7-4.2-5.3,0-1.1,4.1-2.6,4.7-3.7,2.1-3.4-.7-5.7-3.7-4.7-2.8,1-3,6.8-6.2,7.8-1.8-8.2,6.4-10.2,7.3-16.7-6.4-.8-10,4.7-10.5,10.4l-1-8.4c-2.2-.9-6.8,1.8-7.3,3.7h0Z"/>
  <path class="st0" d="M583.4,206.2c6.8,6.9,16.8,18.7,22.2,26.4,5.3,7.8,21,55.2,22,64.8,1.1,11.6-1.4,23.6-1,34.4.4,10.1,9.6,17.8,15.7,7.3,3.9-2.9.2,10.7.2,11.5,0,4.1,5.2,11.6,7.8,15,1.7,2.3,7.5,9.3,9.6,10.6,10,6.4,29.5-2.6,40,6.7,1.4,1.2,7,9.5,7.5,11.3,2.2,6.7-.8,15.6-4,21.6-2.9,5.3-11.6,11.2-7.8,17.2,1.4,2.2,16.5,2,21,3.3,6.8,1.8,16.2,7.9,16.5,15.7,0,1.5-.8,11-1.2,12.3-1.5,6-11.1,8.7-11.2,17.1,0,9,11.8,8.4,12.5,15.6.2,2.2-2.1,9-3.2,11.3-2.1,4.3-7.8,8.8-8.3,12.6-.6,4.3-.1,12.6,1.1,16.7,3.6,11.7,15.3,14,6.7,27.7-23.1,36.6-84.4,48.1-122.7,64.4-13.7,5.8-24.6,9.4-20.7,26.9,2.1,9.6,20.9,10.4,28.6,10.2,3.8,0,8.2-2.4,12-.6,7.6,3.6-4.6,18.1,9.1,20.1,13.5,2,47.4,1.1,61.3-.9,9-1.3,16.9-5.4,25.5-6.9,15.8-2.9,26.8-2,43.1-8.1,10.1-3.8,29.4-20.2,37.2-21.4,10.3-1.5,11.4,12.6,21.9,13.6,6.5.6,7.5-1.7,12.5-3.2,25.9-7.6,68.1-30.5,92.1-44.8,15.1-8.9,17.1-6.4,26.3-22.8,4.6-8.3,8.9-7.8,17-11.5-.5-12.7-3.6-25-5.3-37.5-1.6-12.5-1.6-22.7-5.1-35.6-.5-1.9-3.2-11.1-3.8-12-2.3-3.2-6.4,1.2-8.9,1.7s-3.9-.7-5.7-.6c-6.3.5-7.8,5-13.7-3.2-2.8,8.6-12.6,8.1-11-1.5.4-2.7,4-3.6,3.2-6.8-5,1.9-5.4-2.5-6.9-3-1.7-.6-4,.2-5.9-.4s-5.5-5.6-8.5-7.2c-2.6-1.3-5.4-1.3-7.8-2.6s-9.5-10.1-9.6-12.4c0-.8,3.4-9.6,4-10.7,1.1-2,5.2-5.9,7.3-6.4,1.9-.4,10,2.7,10.7-.7,1.1-5.2-13.5-1.6-13.7-7.3-.1-3.3,2.2-4.7,2.3-7.3.2-3-1.6-5.3-.9-9.2s4.7-14.2,7.2-16.8c5-5.2,12.2-5.1,17-8.1,4-2.5,8.6-11.5,11.3-12.7,2.9-1.2,5.5-.5,8.4-1,1.7-.3,3.1-1.7,5.5-1.9,1.8-.1,13,3.1,14.9,4,2.3,1.1,3.9,5.2,7.4,7.2,5,2.8,9.3.4,7,7.8-.6,2.1-2.5,1.9-3,3.3-6.8,17.4,21.8,9.1,24.9,2.9,3.3-6.6-7.9-11.9-7.9-15.2s7.3-11.7,8-11.9c3.4-1,5.9,4.1,8.2,4.1,3,0,4.3-5.7,9.4-1.1,1.4,1.2,2.2,4.1,3.6,4.7,2.1,1,5,0,6.1.7,1,.6,4.1,10,5.4,11.6,2,2.7,8.2,2.2,4.3,7.6-1.2,1.6-8.4,2.9-4.7,5.8,1.5,1.2,9.1,3.3,2.2,6.4-9.6,4.4-14.7-7.8-23.2-7.6-2.1,0-11.1,1.4-12.5,2.2-2.5,1.6-2.5,5.1-4.1,6.9-1.3,1.4-4.6,2.1-5.9,4,0,2.2,10.5.5,8.2,8.2-1.1,3.5-7.5,6,4.2,6.8,1.3-2.1,11.4-14.1,12.3-14.3,4-.8,5.1,5.7,7.1,7.2,2.9,2.2,9,.4,8,6.7-.6,3.6-4.6,3-5.1,3.8-1,1.5.7,6.5-.7,9.3-.8,1.6-4.4,2.7-5.8,4.7s-1.4,4.8-2.7,6.7c-1.6,2.5-7.4,11.6-8.9,13.1-4.9,4.9-7.9,1.8-11.7,2.9s-4.7,4.6-7.7,4.8-7.4-5.9-7.7,2.8c-.2,5.5,2.6,6.6,3.8,11,2.7,9.6,2.2,19.1,3.8,28.6,1.2,7.2,4.3,13.3,5.9,20.3,1.3,6.1,1.7,23.1,3.6,26.7,2.5,4.7,14-.3,17.5,1.2,4.7,2.1,11.6,10.8,13.8,15.5,7.1,14.7,10.7,49.1,5.3,64.2-2.5,6.9-9.7,14-16.3,17.2-2.6,1.2-6.1,1.4-8,2.4-4.1,2.4-4.3,22-4.3,27.2,0,7.8,2.2,18.2,2,26-.2,6.6-2.2,18.5-10.7,18.1-9.8-.5-7.2-12.4-7-20.1.4-11.1,4-27.3,3.1-37.6-1.6-18.7-15.8,4.1-20.4,8.9-4.6,4.7-12.3,13-17.2,17.3-9.3,8.1-31.5,18.3-38.1,27.8-4.9,7.1-2,16-2.7,24.4-.7,7.9-3.1,14.3-7.3,20.9-14.5,23.2-61.7,44-82.3,64.1-22.4,9.4-39.4,26.8-59.6,39.7-10.6,6.8-23.6,12.3-34.1,19.2-7.1,4.7-15.8,12.6-22.6,18.2-6.1,5-16.9,18-16.9,26.1,0,16.3,4.6,35.8,6.4,52.3,1.7,15.2,1.9,30.7,4.3,45.8,6.5,40.4,24.2,89.2,40.1,127.1,11.1,26.5,27.6,49.5,50.4,66.9,2,1.5,12.2,6.9,12.6,7.5.6,1,.2,2.3.3,3.4-.3,1-14.2,2.5-16.8,3.1-18,4.4-37.4,17.3-54.6,24.8-11.9,5.2-29.8,7.8-37.8,19.7-3.7,5.5-8.1,31.8-10.5,40.7-14.6,53.8-30.5,108-48.1,161-5.8,17.3-22,49.7-31.9,65.3-2.5,4-6.1,8-11,8.8-14.9,2.3-34.2-2-49.6.6-1.7.8-10.1,14.8-11.7,17.6-15,25.8-29.8,62.1-30.1,92.3,0,1.5.2,2.7,1.1,3.9,11.7,12.3,26.7,20.2,41,29.1,7.8,7.1,19.2,15.7,28.6,20.6,8.9,4.7,21.3,6.3,30.6,10.1,5.9,4.2,1.6,13.5-4.9,14.9-2.7.6-15.2,1.3-18.6,1.3s-6.3-1.8-9.4-1.9c-9.7-.3-20.7.5-30.2-.4s-18-6.3-27.3-7.2c-21.1-2.1-43,0-63.7-1-5.4-.2-12.3-2.1-17.7-2.2-12.8-.4-31,1.8-42.8,0-14.3-2.2-9.1-23.6-6.3-33.4,13.4-48.6,50.4-52.7,46.6-113.4-1.1-18-11-28.2-6.6-46.3.8-3.3,4.7-11.7,4-13.7-.9-2.6-8.5-9.8-10.9-12.1-7.7-7.2-16.9-14.9-25.2-21.9-5.4-4.6-12.4-3.7-7.5-13.8,2.9-5.9,5.4-11.8,8.2-17.9,7.2-15.6,18.1-32,24.6-47.5,10.1-23.9-8.5-33.7-17.5-51.9-11.2-22.5-13.5-44.8-13.1-69.6,0-4.4,1.7-8.5,1.1-13.6-1.7-14.6-13.8-10.4-24.3-12.2-6.8-1.2-17.2-3.4-23.6-5.7-5.7-2-9.4-5.4-14.7-7.8-1.2-1.7,8.4-21.3,9.8-25,16.9-44.5,25.4-79.4,35.3-125.6,3.3-15.2,10.5-31.5,13-46.6,7.5-44.6,7.8-108.7,5.5-154.5-.4-8.7,0-18.2-7.9-23.5-.5-31.9-2.3-65.8,2.9-97.4,3-18.7,25.1-61.8,37.9-76,3.7-4.1,17.1-13.6,18.6-17,2-4.7,2.3-21.9-2.8-24.9-2.9-1.7-17.6-1.2-22.1-1-8.6.3-18.6,2.4-27.2,2.2-9-.2-19.8-2.8-29.2-3.2-6.2-.3-13.1,1.1-18.5.9-12.5-.6-41.9-14-54.1-19.1-5.9-2.5-11.6-7.7-18.9-5.3-8.9,2.9,7.1,21.2-4.6,19.4l-41.3-25.7c-13.6-13.4-27.6-26.7-40.9-40.7-26-27.3-48.2-65.5-70.6-96.6-10.6-14.7-16.5-17.7-22.9-36.7-18.5-55.4-6.7-100.5,18.9-150.3,2.4-4.7,9.6-9.3,2-13.7-4.4,1.6-9,.6-13.3,1.4s-8.7,3.7-12.8,3.9c-2.2.1-2.1-2-1.6-3.6.1-.4,6-3.3,7.9-4.8,12.9-10.8,13.4-11,28.4-18.6,16.3-8.2,1.5-19,12.4-28.4,4.1,2.2,4.1,9.4,9.1,9.2,8.6-.3,9.6-9.5,13.5-14.8,24.4-33.1,53.3-55.3,85.6-79.5,62.7-46.9,129.9-29,202.2-33,12.9-.7,40.8-6.5,53.8-9.9,5.4-1.4,8.9-9.9,14.6-7.4s1,8.8,2.3,13.4c1.3,4.2,7.1,5.1,10.8,5,3.9,0,15.5-1,18.2-2.7,1.4-.9,6.9-5.9,8.3-7.4,2.8-2.8,8.6-14.9,13.8-8.4,3,3.8-.7,22.2.9,28.2-1.1,9.2-16.1,15.1-5.7,23.6,9.7,8,26.5,18.2,34.6,26.5h0Z"/>
  <path class="st0" d="M1670.7,51.1c-.3,1.7,1.4,1.1,2.5,1,8-1.3,7-3.3,11.5-7.3,1.9-1.7,6.4-4.2,7.3-6.2,1.5-3.4-.3-12.1,6.1-10.3,3.6,1,3.2,6.6,2.6,9.5-2.5,11.9-30.5,26.5-31,29.6,5.9,10.4,14.8,19.4,19.6,30.4,2,4.6,9,22,9.6,26,.4,2.7.9,15.1-1.6,16-7.8,2.6-12.4-6.4-12.9-12.9-.3-3.9,1-6.4,1.1-9.5,0-3.7-15.8-33.9-19-38.4-1.6-2.2-3.7-4-5.6-5.9-3.3,6.2-24,26.9-29.3,14.6-2.9-6.9,6.2-4.5,10.3-6.5,1.1-.5,9.4-6.9,8.1-8.1-9.7,2.9-17.6,7.3-28.3,4.8-5.8-1.4-9-8.3-3.4-9.8,5-1.3,13.2,6.7,20.1.9l-11.8-5.4c-4.7-4-9-5.3-6.8-12.7,1.3-4.3,7.1-2.9,10.1-1.2,3.8,2.1,4.8,6.9,6,7.8.9.7,10.2,3.5,10.8,3,.2-.2,1.2-3.2.6-4.1-3.1-5-12.2-1.2-11-13,1.1-10.3,11.3-.2,14.5,3.6-1.8-4.8-4.1-23.1,1.7-25,9.7-3.1,6.8,24.9,8.2,25,4.4-4.5,6.4-11.3,7.6-17.5.8-4.1-1.5-15.5,5.8-13.6,10.5,2.7,9,15.3,5.8,23.1-1.4,3.5-5.8,10.9-9.2,12.2h0Z"/>
  <path class="st0" d="M1472.9,229.1c3.3,3.3,1.7,12.5,2.6,16.7.9,4.5,6.7,9.1,7.2,14.2,1.4.3,3.8.4,4.7-.9,2.9-4.2-4.7-22.9,8.9-19.5,4,2.8-4.2,17.9-3.2,22.5,5.8,1.3,11-16.5,16.3-9.4,3.9,5.3-11.6,12.3-10,17.8,3.6,3.4,22.8-12.9,28.1-8.2,2.1,17.2-17.2,14.8-27.7,18.6-1.1.4-3.1.6-1.5,2.2.5.5,11.3,2,13,2.1,6.1.3,17.1-2.5,21.8-.9,2.4.8,2.4,5.5.7,6.7-1.2.8-12.9.7-15.2.5-3.7-.4-6.2-2.1-10.4-2.2s-7.9,1.5-12,1.1c-1.9,11.9,17.6,13.2,20.4,18.8,5.3,10.7-13.5-.2-16.5-3.1-4.5-4.4-6.1-6.9-11.7-11.6-8-6.6-6.2-10.1-18.5-4.9-15,6.3-30.8,10.8-46.3,16.4-3.7,1.3-6.3,4.3-10.9,4.8-2.3.3-16.5-1.6-17.3-2.7-1.4-1.9.8-4.9,2.1-6.4,8.1-9.1,23-7.1,34.1-9.8,9.8-2.4,18.1-8.5,27.9-10.8,2.2-.5,6.4.3,7.5-.4,7.5-4.7-17.1-23.9-18.4-28.9-.7-2.5.4-8.4,2.6-9.8,6.3-4,11.9,13.1,14.5,16.8,2.7,3.9,7.5,6.3,10.9,9.5,0-9.9-8.3-19.1-9.4-28.7-.4-3.7-.6-17.4,6-10.7h0Z"/>
  <path class="st0" d="M1241.1,191.2c1.8,1.9,7.2-4.8,7.8-6.3,1.5-3.8-1.6-12.7,5.1-12.3,5.9.3,5.8,6,3.3,10.2-1.1,1.9-3.5,2.2-4.7,3.7-2,2.5-2,6.7-6.2,8.9,11.3,1.1,7.1-.5,10.2-7.1,1.4-3,9,0,9.5,1,6.5,10.7-22.8,15.5-22.8,17.1,2.8,4.1,7.8,4.8,11.4,7.4,7.3,5.2,15.3,13.8,22.1,18.7,6,4.2,17.6,5.7,14.1,16.3-1.3,3.9-8.7,4.1-11.8,2.8-.3-.1-.4-1.4-1-1.8-9.1-4.9-6.7-7.1-12.8-13.1-5.3-5.3-12.4-8.9-18.3-13-3.9-2.7-5.9-9.1-10.7-10.2-12.6-2.9-30.3,11.6-44.2,8.1.2-1.2-.4-4.7,0-5.2.6-.6,12.7-2.6,15.6-3.7,4.3-1.7,7.7-4.9,11.5-7.3-3.8-.6-8.2-2.6-12-2.6-3.6,0-16.5,3.3-18.1-1.7-4.3-12.6,16.9-4.1,22.8-5.6.3-3-2.9-2.7-4.7-5.3-4.8-7.2,4.3-12.9,7.9-7.9,2.6,3.6-1.4,9.9,5.7,12.1.8-3.1-2.7-13.2,1.2-14.5,6.8-2.3,9.7,4.7,8.7,10.3,7,.8,3.1-8.1,3.1-12,0-3,1.2-10.7,5.2-9.5,8.2,2.3.7,16.6,2.1,22.6h0Z"/>
  <path class="st0" d="M1096.9,397.6c.5-1.8,5.1-4.5,7.3-3.7l1,8.4c.5-5.7,4.1-11.2,10.5-10.4-.9,6.5-9.1,8.5-7.3,16.7,3.2-1,3.4-6.8,6.2-7.8,3-1.1,5.8,1.2,3.7,4.7-.6,1-4.7,2.6-4.7,3.7,0,.6,3.7,2.6,4.2,5.3.5,3.1-3.1,11-2.1,12,.6.6,7.7-1.6,6.3,4.2-4.6.5-8,0-11.5-3.1-1.4,4.8,3.9,6.1,5,9.1,1.6,4.2-1.8,4.5-4.6,2.5-2.4-1.7-2.5-7.1-5.7-8.4-1.3,3.1,3,13.5-.5,14.6-1.5.5-3-.2-3.5-1.7-1.1-3.8-.3-12.7-1.4-17.4-2.3-9.9-20.5-8-27.8-9.8-1.5-.4-15.1-5.6-15.8-6.1-8.3-5.7,7.8-12.6,15.1-6.8,2.3,1.8,2.7,4.5,5.4,6.1,6.2,3.5,13.6,1.3,20.2,3.4.7-4.1-1-11.6,0-15.2h0Z"/>
</svg>